<svg height="24" viewBox="0 0 24 24" width="24" xmlns="http://www.w3.org/2000/svg"><g fill="#141414" fill-rule="evenodd"><path d="m20.5857864 20-2.2928932-2.2928932c-.1875364-.1875364-.2928932-.4418903-.2928932-.7071068v-7c0-.55228475.4477153-1 1-1s1 .44771525 1 1v6.5857864l3.7071068 3.7071068c.6299648.6299649.1837981 1.7071068-.7071068 1.7071068h-22c-.89090485 0-1.33707164-1.0771419-.70710678-1.7071068l3.70710678-3.7071068v-6.5857864c0-.55228475.44771525-1 1-1s1 .44771525 1 1v7c0 .2652165-.10535684.5195704-.29289322.7071068l-2.29289322 2.2928932z" fill-rule="nonzero"/><path d="m20 10c0 .5522847-.4477153 1-1 1s-1-.4477153-1-1c0-3.3137085-2.6862915-6-6-6s-6 2.6862915-6 6c0 .5522847-.44771525 1-1 1s-1-.4477153-1-1c0-4.418278 3.581722-8 8-8s8 3.581722 8 8z" fill-rule="nonzero"/><circle cx="12" cy="2" r="2"/><circle cx="12" cy="22" r="2"/></g></svg>